
<!-- Generator: visioncortex VTracer 0.6.4 -->
<svg version="1.1" xmlns="http://www.w3.org/2000/svg" viewBox="0 0 600 437" preserveAspectRatio="xMidYMid meet">
<path d="M0 0 C0.75 3.125 0.75 3.125 1 6 C3.025 4.067 4.421 2.368 6 0 C6.99 0 7.98 0 9 0 C9.33 2.64 9.66 5.28 10 8 C11.743 5.703 13.399 3.401 15 1 C18.189 -0.008 21.552 -0.15 24.875 -0.438 C25.908 -0.527 26.942 -0.617 28.007 -0.71 C41.8 -1.576 55.418 0.471 69.069 2.239 C77.868 3.378 86.39 4.081 95.27 4.022 C104.166 3.965 113.057 4.175 121.951 4.372 C124.985 4.439 128.019 4.498 131.053 4.557 C132.982 4.599 134.911 4.641 136.84 4.684 C137.747 4.7 138.654 4.717 139.589 4.734 C145.886 4.886 145.886 4.886 147 6 C147.088 8.073 147.107 10.148 147.098 12.223 C147.094 13.483 147.091 14.743 147.088 16.041 C147.08 17.382 147.071 18.722 147.062 20.062 C147.057 21.407 147.053 22.751 147.049 24.096 C147.037 27.397 147.021 30.699 147 34 C145.02 34.66 143.04 35.32 141 36 C142.98 36.66 144.96 37.32 147 38 C147.505 61.427 147.505 61.427 145 68 C142.354 70.333 140.449 70.943 137 72 C139.97 72.66 142.94 73.32 146 74 C145.939 77.323 145.878 80.646 145.816 83.969 C145.797 85.016 145.778 86.063 145.758 87.141 C145.65 92.96 145.538 98.779 145.419 104.598 C145.371 106.992 145.322 109.387 145.273 111.781 C145.249 112.98 145.225 114.178 145.2 115.413 C145.068 122.049 144.96 128.684 144.885 135.32 C144.842 139.018 144.785 142.716 144.724 146.414 C144.7 148.132 144.682 149.85 144.672 151.568 C144.657 153.942 144.619 156.314 144.574 158.688 C144.576 159.377 144.578 160.066 144.58 160.776 C144.494 164.067 144.208 165.738 142.136 168.348 C139.853 170.113 137.522 171.599 135 173 C137.97 174.32 140.94 175.64 144 177 C144.046 185.049 144.082 193.098 144.104 201.148 C144.114 204.885 144.128 208.623 144.151 212.36 C144.173 215.965 144.185 219.57 144.19 223.175 C144.193 224.552 144.201 225.929 144.211 227.306 C144.226 229.231 144.227 231.156 144.227 233.082 C144.231 234.179 144.236 235.276 144.241 236.406 C144 239 144 239 142 241 C142.66 241.33 143.32 241.66 144 242 C145.053 246.502 145.187 250.977 145.316 255.586 C145.348 256.639 145.348 256.639 145.379 257.713 C145.444 259.933 145.503 262.154 145.562 264.375 C145.606 265.889 145.649 267.404 145.693 268.918 C145.8 272.612 145.901 276.306 146 280 C144.35 280.33 142.7 280.66 141 281 C141 281.66 141 282.32 141 283 C141.804 283.268 142.609 283.536 143.438 283.812 C144.283 284.204 145.129 284.596 146 285 C147.792 290.377 147.058 296.204 145.062 301.477 C139.805 311.542 130.676 319.104 120.07 323.105 C117.724 323.813 115.389 324.456 113 325 C112.34 323.68 111.68 322.36 111 321 C110.443 321.99 109.886 322.98 109.312 324 C107 327 107 327 104.25 327.375 C103.507 327.251 102.765 327.127 102 327 C101 325 101 325 101 322 C100.01 323.65 99.02 325.3 98 327 C95.687 326.812 95.687 326.812 93 326 C91.188 323.438 91.188 323.438 90 321 C89.67 321.66 89.34 322.32 89 323 C72.694 327.423 53.252 323.761 36.735 321.511 C25.037 319.919 13.382 318.825 1.562 318.938 C0.306 318.947 -0.951 318.956 -2.246 318.965 C-3.155 318.976 -4.064 318.988 -5 319 C-6.757 314.026 -8.326 309.258 -9 304 C-9.33 304.33 -9.66 304.66 -10 305 C-10 309.29 -10 313.58 -10 318 C-20.56 317.34 -31.12 316.68 -42 316 C-42.99 313.133 -43.98 310.266 -45 307.312 C-45.313 306.418 -45.626 305.524 -45.949 304.603 C-47.293 300.641 -48.415 297.247 -48 293 C-48.66 293 -49.32 293 -50 293 C-49.835 294.196 -49.67 295.392 -49.5 296.625 C-48.781 303.051 -48.698 309.543 -49 316 C-50.663 317.663 -52.783 317.36 -55.062 317.562 C-56.441 317.688 -56.441 317.688 -57.848 317.816 C-58.558 317.877 -59.268 317.938 -60 318 C-61.32 315.36 -62.64 312.72 -64 310 C-64.651 312.051 -65.302 314.102 -65.953 316.152 C-67 318 -67 318 -68.571 318.589 C-72.004 319.17 -75.434 319.295 -78.906 319.43 C-80.117 319.482 -80.117 319.482 -81.352 319.535 C-83.126 319.611 -84.9 319.686 -86.674 319.759 C-91.622 319.962 -96.569 320.178 -101.516 320.395 C-102.584 320.441 -103.652 320.487 -104.752 320.535 C-113.123 320.905 -121.491 321.324 -129.859 321.762 C-178.289 324.286 -178.289 324.286 -202.511 324.709 C-203.972 324.735 -205.433 324.762 -206.895 324.789 C-207.586 324.802 -208.278 324.815 -208.991 324.828 C-213.565 324.928 -218.11 325.186 -222.672 325.52 C-229.937 326.045 -237.156 326.115 -244.438 326.062 C-245.658 326.058 -246.878 326.053 -248.135 326.049 C-251.09 326.037 -254.045 326.021 -257 326 C-258.316 322.38 -259 319.904 -259 316 C-259.66 316 -260.32 316 -261 316 C-261.66 318.97 -262.32 321.94 -263 325 C-276.683 325.203 -290.332 324.584 -304 324 C-304.454 322.866 -304.908 321.731 -305.375 320.562 C-306.571 316.953 -306.571 316.953 -309 316 C-309.33 317.98 -309.66 319.96 -310 322 C-311.65 322.33 -313.3 322.66 -315 323 C-315.66 321.35 -316.32 319.7 -317 318 C-317.309 318.66 -317.619 319.32 -317.938 320 C-320.352 322.342 -320.826 322.27 -324.051 322.242 C-328.945 322.13 -333.502 321.26 -338.25 320.125 C-339.414 319.864 -339.414 319.864 -340.602 319.598 C-344.573 318.683 -348.228 317.569 -352 316 C-350.025 268.216 -350.025 268.216 -348 249 C-345.36 248.01 -342.72 247.02 -340 246 C-342.31 245.01 -344.62 244.02 -347 243 C-346.928 241.911 -346.856 240.822 -346.781 239.701 C-345.955 226.332 -345.913 213.015 -346 199.625 C-346.027 195.451 -346.047 191.276 -346.062 187.102 C-346.071 186.178 -346.079 185.255 -346.088 184.304 C-346.105 179.498 -345.927 174.777 -345.504 169.989 C-344.788 161.356 -344.856 152.734 -344.867 144.078 C-344.867 142.248 -344.866 140.417 -344.864 138.587 C-344.863 134.754 -344.865 130.921 -344.87 127.089 C-344.875 122.283 -344.872 117.478 -344.866 112.672 C-344.848 94.459 -344.91 76.254 -345.445 58.047 C-345.465 57.354 -345.484 56.66 -345.504 55.946 C-345.592 48.552 -345.592 48.552 -346.609 41.26 C-347 39 -347 39 -345.562 36.688 C-345.047 36.131 -344.531 35.574 -344 35 C-345.32 34.34 -346.64 33.68 -348 33 C-348 31.35 -348 29.7 -348 28 C-344.927 27.089 -342.199 26.911 -339 27 C-339.957 25.874 -340.916 24.749 -341.875 23.625 C-342.676 22.685 -342.676 22.685 -343.492 21.727 C-344.614 20.442 -345.794 19.206 -347 18 C-347.854 12.456 -347.225 7.671 -344 3 C-340.049 -0.292 -337.001 -0.106 -332 0 C-331.368 1.499 -331.368 1.499 -330.723 3.027 C-330.169 4.331 -329.616 5.634 -329.062 6.938 C-328.646 7.927 -328.646 7.927 -328.221 8.936 C-326.992 12.205 -326.992 12.205 -325 15 C-324.867 14.085 -324.734 13.17 -324.598 12.227 C-324.421 11.038 -324.244 9.85 -324.062 8.625 C-323.801 6.85 -323.801 6.85 -323.535 5.039 C-323 2 -323 2 -322 0 C-321.039 0.03 -320.077 0.059 -319.087 0.09 C-284.098 1.138 -249.117 1.156 -214.117 1.129 C-207.819 1.124 -201.52 1.127 -195.222 1.132 C-189.016 1.137 -182.81 1.137 -176.604 1.135 C-172.952 1.133 -169.3 1.133 -165.649 1.136 C-143.167 1.154 -120.68 0.973 -98.257 -0.789 C-93.188 -1.118 -88.075 -1.302 -83 -1 C-82 0 -82 0 -81.902 2.941 C-81.92 4.734 -81.92 4.734 -81.938 6.562 C-81.947 7.76 -81.956 8.958 -81.965 10.191 C-81.982 11.582 -81.982 11.582 -82 13 C-81.34 12.67 -80.68 12.34 -80 12 C-79.425 10.02 -78.937 8.015 -78.5 6 C-78.063 3.985 -77.575 1.98 -77 0 C-74.364 -1.318 -72.152 -1.301 -69.207 -1.5 C-68.027 -1.582 -66.846 -1.664 -65.63 -1.749 C-64.37 -1.832 -63.11 -1.915 -61.812 -2 C-59.894 -2.13 -59.894 -2.13 -57.937 -2.263 C-55.41 -2.434 -52.883 -2.604 -50.356 -2.772 C-47.693 -2.953 -45.032 -3.145 -42.371 -3.352 C-8.973 -5.874 -8.973 -5.874 0 0 Z " fill="#E3CAAB" transform="translate(400,61)"/>
<path d="M0 0 C1.65 0 3.3 0 5 0 C5.866 4.555 6.187 8.954 6.316 13.586 C6.337 14.288 6.358 14.99 6.379 15.713 C6.444 17.933 6.503 20.154 6.562 22.375 C6.606 23.889 6.649 25.404 6.693 26.918 C6.8 30.612 6.901 34.306 7 38 C4.525 38.495 4.525 38.495 2 39 C2 39.66 2 40.32 2 41 C2.804 41.268 3.609 41.536 4.438 41.812 C5.283 42.204 6.129 42.596 7 43 C8.792 48.377 8.058 54.204 6.062 59.477 C0.805 69.542 -8.324 77.104 -18.93 81.105 C-21.276 81.813 -23.611 82.456 -26 83 C-27.1 77.609 -26.786 74.181 -25 69 C-24.654 67.913 -24.654 67.913 -24.301 66.805 C-22.445 61.012 -20.3 55.443 -17.438 50.062 C-16.058 47.123 -15.258 44.314 -14.535 41.156 C-13.594 37.363 -12.274 33.692 -11 30 C-10.67 29.01 -10.34 28.02 -10 27 C-9.34 27 -8.68 27 -8 27 C-7.879 25.857 -7.758 24.713 -7.633 23.535 C-7.464 22.044 -7.295 20.553 -7.125 19.062 C-7.046 18.308 -6.968 17.553 -6.887 16.775 C-6.661 14.841 -6.337 12.918 -6 11 C-5.34 10.67 -4.68 10.34 -4 10 C-3.269 7.686 -2.599 5.352 -2 3 C-1.34 3 -0.68 3 0 3 C0 2.01 0 1.02 0 0 Z " fill="#D2A47F" transform="translate(539,303)"/>
<path d="M0 0 C1.082 0.014 2.163 0.028 3.277 0.043 C4.903 0.053 4.903 0.053 6.562 0.062 C9.215 0.23 9.215 0.23 10.215 1.23 C10.302 3.157 10.322 5.087 10.312 7.016 C10.309 8.185 10.306 9.355 10.303 10.561 C10.294 11.792 10.286 13.024 10.277 14.293 C10.273 15.529 10.268 16.764 10.264 18.037 C10.252 21.102 10.235 24.166 10.215 27.23 C8.197 27.198 6.178 27.165 4.16 27.133 C2.133 27.104 2.133 27.104 0.215 28.23 C0.141 26.875 0.141 26.875 0.066 25.492 C-0.008 24.313 -0.083 23.133 -0.16 21.918 C-0.23 20.746 -0.299 19.574 -0.371 18.367 C-0.571 15.073 -0.571 15.073 -2.785 12.23 C-2.91 9.543 -2.91 9.543 -2.785 7.23 C-3.445 7.23 -4.105 7.23 -4.785 7.23 C-4.91 4.855 -4.91 4.855 -4.785 2.23 C-2.785 0.23 -2.785 0.23 0 0 Z " fill="#D1A27F" transform="translate(536.78515625,67.76953125)"/>
<path d="M0 0 C0.66 0 1.32 0 2 0 C2.696 6.542 0.763 10.676 -3 16 C-6.226 19.73 -9.809 23.361 -14 26 C-14.66 26 -15.32 26 -16 26 C-15.918 25.154 -15.835 24.309 -15.75 23.438 C-15.993 20.094 -16.319 19.137 -18 16.438 C-20.024 12.958 -20.21 11.83 -20 8 C-19.359 7.879 -18.719 7.758 -18.059 7.633 C-15.367 7.111 -12.683 6.563 -10 6 C-8.952 5.783 -8.952 5.783 -7.883 5.562 C-3.87 4.598 -2.193 3.463 0 0 Z " fill="#D9B08E" transform="translate(544,353)"/>
<path d="M0 0 C0.027 2.771 0.047 5.542 0.062 8.312 C0.071 9.098 0.079 9.884 0.088 10.693 C0.091 11.451 0.094 12.208 0.098 12.988 C0.103 13.685 0.108 14.381 0.114 15.099 C0 17 0 17 -1 20 C-1.66 20 -2.32 20 -3 20 C-6.098 16.306 -6.566 12.887 -6.434 8.227 C-5.878 5.374 -3.437 0 0 0 Z " fill="#D3A281" transform="translate(547,99)"/>
<path d="M0 0 C0.99 0 1.98 0 3 0 C2.625 2.438 2.625 2.438 2 5 C1.01 5.495 1.01 5.495 0 6 C0 4.02 0 2.04 0 0 Z M2 5 C2.33 5 2.66 5 3 5 C3 6.65 3 8.3 3 10 C2.01 10.495 2.01 10.495 1 11 C0.957 9.334 0.959 7.666 1 6 C1.33 5.67 1.66 5.34 2 5 Z " fill="#D3A581" transform="translate(540,285)"/>
<path d="M0 0 C2.64 0.33 5.28 0.66 8 1 C8.33 1.99 8.66 2.98 9 4 C6.03 3.01 3.06 2.02 0 1 C0 0.67 0 0.34 0 0 Z M5 4 C7 5 7 5 7 5 Z " fill="#F2E6D4" transform="translate(54,304)"/>
<path d="M0 0 C1.98 0.495 1.98 0.495 4 1 C3.67 1.99 3.34 2.98 3 4 C1.68 4 0.36 4 -1 4 C-0.67 2.68 -0.34 1.36 0 0 Z " fill="#D5A180" transform="translate(503,383)"/>
<path d="" fill="#FDF8F1" transform="translate(0,0)"/>
<path d="" fill="#FDF8F1" transform="translate(0,0)"/>
</svg>